<svg width="35" height="35" viewBox="0 0 35 35" fill="none" xmlns="http://www.w3.org/2000/svg">
<path d="M19.1078 27.9234C18.9542 27.7696 18.8679 27.5611 18.8679 27.3438C18.8679 27.1264 18.9542 26.9179 19.1078 26.7641L27.5502 18.3203H5.46874C5.25118 18.3203 5.04253 18.2339 4.88869 18.08C4.73485 17.9262 4.64843 17.7176 4.64843 17.5C4.64843 17.2824 4.73485 17.0738 4.88869 16.92C5.04253 16.7661 5.25118 16.6797 5.46874 16.6797H27.5502L19.1078 8.23594C18.9629 8.08043 18.884 7.87476 18.8878 7.66224C18.8915 7.44972 18.9776 7.24696 19.1279 7.09666C19.2782 6.94637 19.481 6.86028 19.6935 6.85653C19.906 6.85278 20.1117 6.93166 20.2672 7.07656L30.1109 16.9203C30.2645 17.0741 30.3508 17.2826 30.3508 17.5C30.3508 17.7174 30.2645 17.9259 30.1109 18.0797L20.2672 27.9234C20.1134 28.0771 19.9049 28.1633 19.6875 28.1633C19.4701 28.1633 19.2616 28.0771 19.1078 27.9234Z" fill="#1E1E1E"/>
</svg>
